<svg width="175" height="36" viewBox="0 0 175 36" fill="none" xmlns="http://www.w3.org/2000/svg">
<path d="M11.1825 16.3862L8.01587 12.1371C9.70507 11.9099 13.564 12.5647 15.2823 12.9205L13.5158 15.5208L11.1825 16.3862Z" fill="#92CB6A"/>
<path d="M7.17368 18.2377L0.718018 13.3879C0.718018 13.3879 2.34735 12.9656 3.40998 12.7919C4.51098 12.612 6.25128 12.4951 6.25128 12.4951L10.0155 17.1933L7.17368 18.2377Z" fill="#9ACB4A"/>
<path d="M8.93701 19.3756L13.6637 17.3159L14.0776 23.2375L8.93701 19.3756Z" fill="#7DB86E"/>
<path d="M26.9345 4.26917L27.0149 0C27.0149 0 26.3085 0.54155 25.8902 0.92788C25.4568 1.32815 24.8416 2.01536 24.8416 2.01536L25.5742 5.11353L26.9345 4.26917Z" fill="#9ACB4A"/>
<path d="M24.8586 5.33715L24.1186 2.63428C23.474 3.26425 22.4907 5.08562 22.0796 5.91755L23.7384 6.02785L24.8586 5.33715Z" fill="#92CB6A"/>
<path d="M26.8347 5.37402L24.4377 6.67339L26.7707 8.7735L26.8347 5.37402Z" fill="#7DB86E"/>
<path d="M23.7277 6.89891L21.8333 6.70508C21.4395 7.4569 21.363 9.27977 21.374 10.0972L26.213 9.31827L23.7277 6.89891Z" fill="#45AC6C"/>
<mask id="mask0_461_5424" style="mask-type:alpha" maskUnits="userSpaceOnUse" x="27" y="0" width="6" height="16">
<path d="M27.3533 15.5882L27.6464 0.0136719C30.5294 2.30871 35.2886 8.28763 31.2614 13.8428C30.6165 14.5048 29.3345 15.5786 27.3533 15.5882Z" fill="#12B09F"/>
</mask>
<g mask="url(#mask0_461_5424)">
<path fill-rule="evenodd" clip-rule="evenodd" d="M35.7594 -3.62842L26.2167 0.324042L27.2214 2.74957L36.7641 -1.2029L35.7594 -3.62842ZM26.3672 3.69781L35.9099 -0.254658L36.5927 1.39403L27.05 5.3465L26.3672 3.69781ZM35.8856 2.33035L26.3429 6.28281L27.0281 7.93722L36.5708 3.98475L35.8856 2.33035ZM26.3193 8.87209L35.862 4.91957L36.5433 6.56441L27.0006 10.5169L26.3193 8.87209ZM35.7698 7.5088L26.2271 11.4613L26.9199 13.1338L36.4626 9.18129L35.7698 7.5088ZM35.6811 10.1035L26.1384 14.056L27.0058 16.1501L36.5485 12.1976L35.6811 10.1035Z" fill="#12B09F"/>
</g>
<path d="M26.2681 10.2671L21.5112 10.8894C21.5664 12.1558 22.5177 13.4391 23.0358 13.9233L26.2681 10.2671Z" fill="#00AA98"/>
<path d="M26.8061 11.0688L23.6589 14.4103C24.6937 15.442 26.1307 15.6694 26.7198 15.6542L26.8061 11.0688Z" fill="#2E8685"/>
<path d="M43.7383 16.631L47.068 12.5084C45.389 12.2156 41.5075 12.7195 39.7766 13.0081L41.4405 15.6753L43.7383 16.631Z" fill="#92CB6A"/>
<path d="M47.6723 18.6364L54.312 14.0417C54.312 14.0417 52.7004 13.5563 51.6453 13.3414C50.5522 13.1187 48.8178 12.9341 48.8178 12.9341L44.8733 17.4821L47.6723 18.6364Z" fill="#9ACB4A"/>
<path d="M14.824 16.518L16.7404 13.4692C18.3192 13.7575 21.1247 15.7654 22.3301 16.7333L15.5365 23.0379L14.824 16.518Z" fill="#45AC6C"/>
<path d="M40.0947 16.6221L38.2985 13.501C36.7097 13.7276 33.8281 15.6247 32.5859 16.5449L39.1287 23.1094L40.0947 16.6221Z" fill="#45AC6C"/>
<mask id="mask1_461_5424" style="mask-type:alpha" maskUnits="userSpaceOnUse" x="0" y="14" width="24" height="22">
<path d="M23.5511 32.0382L0 14.3452C0.06417 21.3132 3.43415 35.3655 16.4007 35.8305C18.138 35.6401 21.2305 34.9796 23.5511 32.0382Z" fill="#12B09F"/>
</mask>
<g mask="url(#mask1_461_5424)">
<path fill-rule="evenodd" clip-rule="evenodd" d="M-14.8735 22.1932L2.12497 12.5732L4.57011 16.8938L-12.4283 26.5138L-14.8735 22.1932ZM6.97631 16.7245L-10.0222 26.3446L-8.36011 29.2814L8.63842 19.6613L6.97631 16.7245ZM-6.14043 29.3164L10.8581 19.6963L12.5259 22.6433L-4.4726 32.2634L-6.14043 29.3164ZM14.7439 22.6764L-2.25458 32.2965L-0.596405 35.2264L16.4021 25.6063L14.7439 22.6764ZM1.71037 35.174L18.7089 25.5539L20.395 28.5332L3.39647 38.1533L1.71037 35.174ZM5.68221 38.0626L22.6807 28.4425L24.7917 32.1727L7.79321 41.7928L5.68221 38.0626Z" fill="#12B09F"/>
</g>
<mask id="mask2_461_5424" style="mask-type:alpha" maskUnits="userSpaceOnUse" x="30" y="15" width="25" height="21">
<path d="M30.7698 31.7865L54.9924 15.0244C54.6569 21.9846 50.742 35.8949 37.7671 35.8544C36.0385 35.5965 32.9741 34.816 30.7698 31.7865Z" fill="#12B09F"/>
</mask>
<g mask="url(#mask2_461_5424)">
<path fill-rule="evenodd" clip-rule="evenodd" d="M69.5496 23.4483L52.9388 13.1733L50.3271 17.3954L66.9379 27.6704L69.5496 23.4483ZM47.9288 17.1306L64.5396 27.4056L62.7644 30.2755L46.1536 20.0004L47.9288 17.1306ZM60.5449 30.2263L43.9341 19.9513L42.1527 22.8311L58.7635 33.1061L60.5449 30.2263ZM39.9345 22.7775L56.5453 33.0525L54.7742 35.9157L38.1634 25.6407L39.9345 22.7775ZM52.4722 35.7721L35.8615 25.497L34.0606 28.4084L50.6714 38.6834L52.4722 35.7721ZM48.3903 38.5054L31.7795 28.2304L29.5247 31.8755L46.1355 42.1505L48.3903 38.5054Z" fill="#12B09F"/>
</g>
<path d="M45.8656 19.7042L41.2227 17.4619L40.5784 23.3629L45.8656 19.7042Z" fill="#7DB86E"/>
<path d="M37.7316 24.2416L31.5197 17.6299C29.6375 19.1143 28.7196 21.9921 28.5491 23.3224L37.7316 24.2416Z" fill="#00AA98"/>
<path d="M16.8884 24.2259L23.3531 17.8613C25.1761 19.4178 25.9812 22.3293 26.0997 23.6651L16.8884 24.2259Z" fill="#00AA98"/>
<path d="M37.0978 25.9536L28.4923 24.8169C28.0527 27.5451 29.2918 30.0014 29.9663 30.8886L37.0978 25.9536Z" fill="#2E8685"/>
<path d="M17.4551 25.9611L26.0984 25.1606C26.4314 27.9038 25.0975 30.31 24.3889 31.1702L17.4551 25.9611Z" fill="#2E8685"/>
<path d="M64.4546 7.30212C67.2386 7.11012 69.6986 7.01412 71.8346 7.01412C77.7626 7.01412 80.7266 8.99412 80.7266 12.9541C80.7266 14.4421 80.2946 15.7261 79.4306 16.8061C78.5666 17.8621 77.1866 18.5821 75.2906 18.9661C77.1146 19.1821 78.5546 19.7341 79.6106 20.6221C80.6666 21.5101 81.1946 23.0581 81.1946 25.2661C81.1946 29.8981 78.2306 32.2141 72.3026 32.2141H64.4546V7.30212ZM67.4426 31.8541H72.3026C74.4386 31.8541 75.9506 31.3021 76.8386 30.1981C77.7506 29.0701 78.2066 27.3541 78.2066 25.0501C78.2066 22.7461 77.7506 21.2101 76.8386 20.4421C75.9266 19.6741 74.5706 19.2661 72.7706 19.2181H67.4426V31.8541ZM71.8346 7.37412C70.4426 7.37412 68.9786 7.45812 67.4426 7.62612V18.8581H72.7706C76.1546 18.7141 77.8466 16.7701 77.8466 13.0261C77.8466 11.2021 77.3426 9.81012 76.3346 8.85012C75.3266 7.86612 73.8266 7.37412 71.8346 7.37412ZM98.6656 32.2141H84.9859V7.01412H87.9739V31.8541H98.6656V32.2141ZM99.7696 20.2261C99.7696 15.8581 100.826 12.5461 102.938 10.2901C105.074 8.01012 107.81 6.87012 111.146 6.87012C114.482 6.87012 117.134 7.85412 119.102 9.82212C121.094 11.7901 122.09 14.9341 122.09 19.2541C122.09 23.5741 121.034 26.8381 118.922 29.0461C116.81 31.2541 113.99 32.3581 110.462 32.3581C107.414 32.3581 104.918 31.4821 102.974 29.7301C101.966 28.8181 101.174 27.5581 100.598 25.9501C100.046 24.3181 99.7696 22.4101 99.7696 20.2261ZM111.038 7.23012C108.614 7.23012 106.622 8.31012 105.062 10.4701C103.526 12.6301 102.758 15.7981 102.758 19.9741C102.758 24.1501 103.49 27.1981 104.954 29.1181C106.418 31.0381 108.362 31.9981 110.786 31.9981C113.234 31.9981 115.226 30.9181 116.762 28.7581C118.322 26.5741 119.102 23.4181 119.102 19.2901C119.102 15.1381 118.358 12.0901 116.87 10.1461C115.406 8.20212 113.462 7.23012 111.038 7.23012ZM125.329 20.2261C125.329 15.8581 126.385 12.5461 128.497 10.2901C130.633 8.01012 133.369 6.87012 136.705 6.87012C140.041 6.87012 142.693 7.85412 144.661 9.82212C146.653 11.7901 147.649 14.9341 147.649 19.2541C147.649 23.5741 146.593 26.8381 144.481 29.0461C142.369 31.2541 139.549 32.3581 136.021 32.3581C132.973 32.3581 130.477 31.4821 128.533 29.7301C127.525 28.8181 126.733 27.5581 126.157 25.9501C125.605 24.3181 125.329 22.4101 125.329 20.2261ZM136.597 7.23012C134.173 7.23012 132.181 8.31012 130.621 10.4701C129.085 12.6301 128.317 15.7981 128.317 19.9741C128.317 24.1501 129.049 27.1981 130.513 29.1181C131.977 31.0381 133.921 31.9981 136.345 31.9981C138.793 31.9981 140.785 30.9181 142.321 28.7581C143.881 26.5741 144.661 23.4181 144.661 19.2901C144.661 15.1381 143.917 12.0901 142.429 10.1461C140.965 8.20212 139.021 7.23012 136.597 7.23012ZM151.157 32.2141H150.689L153.821 7.01412H155.009L162.569 30.3061L170.093 7.01412H171.281L174.413 32.2141H171.425L168.941 12.0541L162.425 32.2141H160.157L153.569 12.3061L151.157 32.2141Z" fill="white" stroke="white"/>
</svg>
